<?xml version="1.0" encoding="iso-8859-1"?>
<!-- Generator: Adobe Illustrator 19.0.0, SVG Export Plug-In . SVG Version: 6.00 Build 0)  -->
<!-- License: CC0. Made by SVG Repo: https://www.svgrepo.com/svg/203592/chainsaw -->
<svg version="1.1" id="Layer_1" xmlns="http://www.w3.org/2000/svg" xmlns:xlink="http://www.w3.org/1999/xlink" x="0px" y="0px"
	 viewBox="0 0 503.607 503.607" style="enable-background:new 0 0 503.607 503.607;" xml:space="preserve">
<g>
	<g>
		<g>
			<path d="M41.967,314.754c0,4.642,3.752,8.393,8.393,8.393h109.115c4.642,0,8.393-3.752,8.393-8.393
				c0-4.642-3.752-8.393-8.393-8.393H50.361C45.719,306.361,41.967,310.113,41.967,314.754z"/>
			<path d="M490.244,283.757l-90.716-68.046c-0.663-0.495-1.385-0.873-2.14-1.15c-9.342-20.102-29.671-34.103-53.256-34.103H293.77
				v-25.18c0-18.516-15.058-33.574-33.574-33.574s-33.574,15.058-33.574,33.574v25.18c-28.63,0-41.967,45.073-41.967,75.541v8.393
				H50.361C22.587,264.393,0,286.98,0,314.754c0,27.774,22.587,50.361,50.361,50.361H186.2c3.475,9.753,12.708,16.787,23.636,16.787
				h41.967V272.787c0-4.642,3.752-8.393,8.393-8.393h33.574V256h-8.393c-4.642,0-8.393-3.752-8.393-8.393
				c0-4.642,3.752-8.393,8.393-8.393h33.574c4.642,0,8.393,3.752,8.393,8.393c0,4.642-3.752,8.393-8.393,8.393h-8.393v8.393h33.574
				c2.803,0,5.422,1.402,6.983,3.735l16.787,25.18c0.915,1.377,1.41,3.005,1.41,4.658v25.18c0,0.898-0.151,1.796-0.436,2.652
				l-7.009,56.102h7.361c12.389,0,23.107-6.799,28.957-16.787h80.157c13.925,0,25.264-11.34,25.264-25.264v-29.385
				C503.607,300.007,498.612,290.027,490.244,283.757z M184.656,348.328H50.361c-18.516,0-33.574-15.058-33.574-33.574
				s15.058-33.574,33.574-33.574h134.295V348.328z M276.984,180.459H243.41v-25.18c0-9.258,7.529-16.787,16.787-16.787
				c9.258,0,16.787,7.529,16.787,16.787V180.459z M402.885,314.754V281.18l44.762,33.574H402.885z"/>
			<path d="M268.59,281.18v100.721h77.111l6.824-60.114V300.51l-12.884-19.33H268.59z M318.951,348.328h-25.18
				c-4.642,0-8.393-3.752-8.393-8.393c0-4.642,3.752-8.393,8.393-8.393h25.18c4.642,0,8.393,3.752,8.393,8.393
				C327.344,344.576,323.592,348.328,318.951,348.328z M318.951,314.754h-25.18c-4.642,0-8.393-3.752-8.393-8.393
				c0-4.642,3.752-8.393,8.393-8.393h25.18c4.642,0,8.393,3.752,8.393,8.393C327.344,311.002,323.592,314.754,318.951,314.754z"/>
		</g>
	</g>
</g>
</svg>
